# xmcd
#
# Track frame offsets:
#	150
#	12897
#	29002
#	39670
#	49830
#	60060
#	69745
#	86675
#	98830
#	109692
#	125570
#	138200
#	151887
#	161757
#	176337
#
# Disc length: 2551 seconds
#
# Revision: 3
# Processed by: cddbd v1.5.2PL0 Copyright (c) Steve Scherf et al.
# Submitted via: audiograbber 1.83.01
#
DISCID=bf09f50f
DTITLE=Various Artist - Mega Country Vol. I CD2
DYEAR=1997
DGENRE=Country
TTITLE0=Willie Nelson - To All the Girls I've Love Before
TTITLE1=Don Gibson - Green Green Grass of Home
TTITLE2=Dolly Parton - It Wasn't God Who Made Honky Tonk Angels
TTITLE3=Jim Reeves - Anne Marie
TTITLE4=Anne Murray - Some Birds
TTITLE5=Barbara Mandrell - Release Me
TTITLE6=Johnny Cash - Sunday Morning Coming Down
TTITLE7=Dave Dudley - There Ain't No Easy Run
TTITLE8=Donna Fargo - Wishful Thin King
TTITLE9=Jeannie C Riley - the Cotton Patch
TTITLE10=Charley Pride - Help Me Make it Throgh the Night
TTITLE11=Jeannie Seely - One Day at a Time
TTITLE12=Ferlin Husky - Looking at the World Through a Windshield
TTITLE13=Loretta Lynn - Coalminer's Daughter
TTITLE14=Jerry Lee Lewis - Cold, Cold Heart
EXTD=
EXTT0=
EXTT1=
EXTT2=
EXTT3=
EXTT4=
EXTT5=
EXTT6=
EXTT7=
EXTT8=
EXTT9=
EXTT10=
EXTT11=
EXTT12=
EXTT13=
EXTT14=
PLAYORDER=
